<mxfile host="Electron" agent="Mozilla/5.0 (Windows NT 10.0; Win64; x64) AppleWebKit/537.36 (KHTML, like Gecko) draw.io/25.0.2 Chrome/128.0.6613.186 Electron/32.2.5 Safari/537.36" version="25.0.2">
  <diagram id="C5RBs43oDa-KdzZeNtuy" name="Page-1">
    <mxGraphModel dx="1091" dy="1808" grid="1" gridSize="10" guides="1" tooltips="1" connect="1" arrows="1" fold="1" page="1" pageScale="1" pageWidth="827" pageHeight="1169" math="0" shadow="0">
      <root>
        <mxCell id="WIyWlLk6GJQsqaUBKTNV-0" />
        <mxCell id="WIyWlLk6GJQsqaUBKTNV-1" parent="WIyWlLk6GJQsqaUBKTNV-0" />
        <mxCell id="ZR14jFrq00qd8k6B1fgf-48" value="&lt;div&gt;クイズゲームプレイ画面セクション(SSEチック?)&lt;/div&gt;" style="rounded=0;whiteSpace=wrap;html=1;fontStyle=1;fontSize=16;strokeWidth=2;dashed=1;fillColor=#fff2cc;strokeColor=#d6b656;dashPattern=1 1;verticalAlign=top;connectable=1;editable=1;movable=1;resizable=1;rotatable=1;deletable=1;locked=0;metaEdit=0;dropTarget=0;opacity=50;" vertex="1" parent="WIyWlLk6GJQsqaUBKTNV-1">
          <mxGeometry x="2208" y="180" width="1672" height="860" as="geometry" />
        </mxCell>
        <mxCell id="ZR14jFrq00qd8k6B1fgf-110" value="&lt;span style=&quot;font-weight: 700; text-align: center;&quot;&gt;&lt;font style=&quot;font-size: 22px;&quot;&gt;　　　[参加者]側ページ(画面)&lt;/font&gt;&lt;/span&gt;" style="whiteSpace=wrap;html=1;fillColor=#f8cecc;strokeColor=#b85450;rounded=1;strokeWidth=2;opacity=66;perimeterSpacing=0;align=left;verticalAlign=bottom;" vertex="1" parent="WIyWlLk6GJQsqaUBKTNV-1">
          <mxGeometry x="2239" y="640" width="1610" height="370" as="geometry" />
        </mxCell>
        <mxCell id="ZR14jFrq00qd8k6B1fgf-109" value="&lt;span style=&quot;font-weight: 700; text-align: center;&quot;&gt;&lt;font style=&quot;font-size: 22px;&quot;&gt;　　　[主催者]側ページ(画面)&lt;/font&gt;&lt;/span&gt;" style="whiteSpace=wrap;html=1;fillColor=#d5e8d4;strokeColor=#82b366;rounded=1;strokeWidth=2;opacity=66;perimeterSpacing=0;align=left;verticalAlign=top;" vertex="1" parent="WIyWlLk6GJQsqaUBKTNV-1">
          <mxGeometry x="2240" y="210" width="1610" height="370" as="geometry" />
        </mxCell>
        <mxCell id="ZR14jFrq00qd8k6B1fgf-84" value="" style="endArrow=none;html=1;rounded=0;strokeWidth=3;dashed=1;fillColor=#dae8fc;strokeColor=#6c8ebf;dashPattern=1 1;endFill=0;entryX=0.5;entryY=0;entryDx=0;entryDy=0;exitX=0;exitY=0.25;exitDx=0;exitDy=0;exitPerimeter=0;" edge="1" parent="WIyWlLk6GJQsqaUBKTNV-1" source="ZR14jFrq00qd8k6B1fgf-78" target="ZR14jFrq00qd8k6B1fgf-60">
          <mxGeometry width="50" height="50" relative="1" as="geometry">
            <mxPoint x="3150" y="810" as="sourcePoint" />
            <mxPoint x="3050" y="420" as="targetPoint" />
            <Array as="points">
              <mxPoint x="3060" y="790" />
              <mxPoint x="3280" y="790" />
              <mxPoint x="3280" y="420" />
              <mxPoint x="3040" y="420" />
            </Array>
          </mxGeometry>
        </mxCell>
        <mxCell id="ZR14jFrq00qd8k6B1fgf-67" value="" style="endArrow=none;html=1;rounded=0;strokeWidth=3;dashed=1;fillColor=#dae8fc;strokeColor=#6c8ebf;dashPattern=1 1;endFill=0;shape=flexArrow;" edge="1" parent="WIyWlLk6GJQsqaUBKTNV-1">
          <mxGeometry width="50" height="50" relative="1" as="geometry">
            <mxPoint x="2869.7" y="720" as="sourcePoint" />
            <mxPoint x="2869.7" y="500" as="targetPoint" />
          </mxGeometry>
        </mxCell>
        <mxCell id="AtVpPJ6zDkACYOzKNUNn-0" value="最初のページ&lt;div&gt;(/(index.html))&lt;/div&gt;" style="rounded=0;whiteSpace=wrap;html=1;fontStyle=1;fontSize=16;strokeWidth=2;" parent="WIyWlLk6GJQsqaUBKTNV-1" vertex="1">
          <mxGeometry x="80" y="80" width="200" height="120" as="geometry" />
        </mxCell>
        <mxCell id="AtVpPJ6zDkACYOzKNUNn-1" value="メインページ&lt;div&gt;(/main)&lt;/div&gt;" style="rounded=0;whiteSpace=wrap;html=1;fontStyle=1;fontSize=16;strokeWidth=2;" parent="WIyWlLk6GJQsqaUBKTNV-1" vertex="1">
          <mxGeometry x="760" y="80" width="200" height="120" as="geometry" />
        </mxCell>
        <mxCell id="AtVpPJ6zDkACYOzKNUNn-2" value="" style="endArrow=classic;html=1;rounded=0;exitX=1;exitY=0.5;exitDx=0;exitDy=0;strokeWidth=3;entryX=0;entryY=0.5;entryDx=0;entryDy=0;" parent="WIyWlLk6GJQsqaUBKTNV-1" source="AtVpPJ6zDkACYOzKNUNn-0" target="AtVpPJ6zDkACYOzKNUNn-5" edge="1">
          <mxGeometry width="50" height="50" relative="1" as="geometry">
            <mxPoint x="440" y="240" as="sourcePoint" />
            <mxPoint x="380" y="130" as="targetPoint" />
          </mxGeometry>
        </mxCell>
        <mxCell id="AtVpPJ6zDkACYOzKNUNn-3" value="ユーザ新規登録ページ&lt;div&gt;(/register_useracc)&lt;/div&gt;" style="rounded=0;whiteSpace=wrap;html=1;fontStyle=1;fontSize=16;strokeWidth=2;" parent="WIyWlLk6GJQsqaUBKTNV-1" vertex="1">
          <mxGeometry x="420" y="260" width="200" height="120" as="geometry" />
        </mxCell>
        <mxCell id="AtVpPJ6zDkACYOzKNUNn-4" value="" style="endArrow=classic;html=1;rounded=0;exitX=1;exitY=1;exitDx=0;exitDy=0;entryX=0;entryY=0.5;entryDx=0;entryDy=0;strokeWidth=3;" parent="WIyWlLk6GJQsqaUBKTNV-1" source="AtVpPJ6zDkACYOzKNUNn-0" target="AtVpPJ6zDkACYOzKNUNn-3" edge="1">
          <mxGeometry width="50" height="50" relative="1" as="geometry">
            <mxPoint x="270" y="250" as="sourcePoint" />
            <mxPoint x="350" y="250" as="targetPoint" />
          </mxGeometry>
        </mxCell>
        <mxCell id="AtVpPJ6zDkACYOzKNUNn-5" value="&lt;span style=&quot;font-size: 16px;&quot;&gt;&lt;b&gt;ユーザログインページ&lt;/b&gt;&lt;/span&gt;&lt;br&gt;&lt;div style=&quot;font-size: 16px; font-weight: 700;&quot;&gt;(/login)&lt;/div&gt;" style="rounded=1;whiteSpace=wrap;html=1;strokeWidth=2;" parent="WIyWlLk6GJQsqaUBKTNV-1" vertex="1">
          <mxGeometry x="420" y="80" width="200" height="120" as="geometry" />
        </mxCell>
        <mxCell id="AtVpPJ6zDkACYOzKNUNn-6" value="" style="endArrow=classic;html=1;rounded=0;exitX=1;exitY=0.5;exitDx=0;exitDy=0;strokeWidth=3;entryX=0;entryY=0.5;entryDx=0;entryDy=0;" parent="WIyWlLk6GJQsqaUBKTNV-1" source="AtVpPJ6zDkACYOzKNUNn-5" target="AtVpPJ6zDkACYOzKNUNn-1" edge="1">
          <mxGeometry width="50" height="50" relative="1" as="geometry">
            <mxPoint x="580" y="129.55" as="sourcePoint" />
            <mxPoint x="660" y="129.55" as="targetPoint" />
          </mxGeometry>
        </mxCell>
        <mxCell id="AtVpPJ6zDkACYOzKNUNn-8" value="&lt;span style=&quot;color: rgb(0, 0, 0); font-family: Helvetica; font-size: 16px; font-style: normal; font-variant-ligatures: normal; font-variant-caps: normal; font-weight: 700; letter-spacing: normal; orphans: 2; text-indent: 0px; text-transform: none; widows: 2; word-spacing: 0px; -webkit-text-stroke-width: 0px; white-space: normal; background-color: rgb(251, 251, 251); text-decoration-thickness: initial; text-decoration-style: initial; text-decoration-color: initial; float: none; display: inline !important;&quot;&gt;「ログイン」&lt;/span&gt;" style="text;whiteSpace=wrap;html=1;align=center;" parent="WIyWlLk6GJQsqaUBKTNV-1" vertex="1">
          <mxGeometry x="283.5" y="100" width="130" height="30" as="geometry" />
        </mxCell>
        <mxCell id="AtVpPJ6zDkACYOzKNUNn-9" value="&lt;span style=&quot;color: rgb(0, 0, 0); font-family: Helvetica; font-size: 16px; font-style: normal; font-variant-ligatures: normal; font-variant-caps: normal; font-weight: 700; letter-spacing: normal; orphans: 2; text-indent: 0px; text-transform: none; widows: 2; word-spacing: 0px; -webkit-text-stroke-width: 0px; white-space: normal; background-color: rgb(251, 251, 251); text-decoration-thickness: initial; text-decoration-style: initial; text-decoration-color: initial; float: none; display: inline !important;&quot;&gt;「ユーザ新規登録」&lt;/span&gt;" style="text;whiteSpace=wrap;html=1;align=center;" parent="WIyWlLk6GJQsqaUBKTNV-1" vertex="1">
          <mxGeometry x="200" y="260" width="150" height="30" as="geometry" />
        </mxCell>
        <mxCell id="AtVpPJ6zDkACYOzKNUNn-11" value="&lt;span style=&quot;color: rgb(0, 0, 0); font-family: Helvetica; font-size: 16px; font-style: normal; font-variant-ligatures: normal; font-variant-caps: normal; font-weight: 700; letter-spacing: normal; orphans: 2; text-indent: 0px; text-transform: none; widows: 2; word-spacing: 0px; -webkit-text-stroke-width: 0px; white-space: normal; background-color: rgb(251, 251, 251); text-decoration-thickness: initial; text-decoration-style: initial; text-decoration-color: initial; float: none; display: inline !important;&quot;&gt;ログイン成功&lt;/span&gt;" style="text;whiteSpace=wrap;html=1;align=center;" parent="WIyWlLk6GJQsqaUBKTNV-1" vertex="1">
          <mxGeometry x="620" y="100" width="130" height="30" as="geometry" />
        </mxCell>
        <mxCell id="AtVpPJ6zDkACYOzKNUNn-12" value="" style="endArrow=classic;html=1;rounded=0;exitX=1;exitY=0.5;exitDx=0;exitDy=0;strokeWidth=3;entryX=0;entryY=0.5;entryDx=0;entryDy=0;" parent="WIyWlLk6GJQsqaUBKTNV-1" source="AtVpPJ6zDkACYOzKNUNn-1" target="AtVpPJ6zDkACYOzKNUNn-13" edge="1">
          <mxGeometry width="50" height="50" relative="1" as="geometry">
            <mxPoint x="1000" y="139.5" as="sourcePoint" />
            <mxPoint x="1080" y="140" as="targetPoint" />
          </mxGeometry>
        </mxCell>
        <mxCell id="AtVpPJ6zDkACYOzKNUNn-13" value="ゲームルーム管理ページ&lt;div&gt;(/gameroom)&lt;/div&gt;" style="rounded=0;whiteSpace=wrap;html=1;fontStyle=1;fontSize=16;strokeWidth=2;" parent="WIyWlLk6GJQsqaUBKTNV-1" vertex="1">
          <mxGeometry x="1100" y="80" width="200" height="120" as="geometry" />
        </mxCell>
        <mxCell id="AtVpPJ6zDkACYOzKNUNn-14" value="&lt;span style=&quot;color: rgb(0, 0, 0); font-family: Helvetica; font-size: 16px; font-style: normal; font-variant-ligatures: normal; font-variant-caps: normal; font-weight: 700; letter-spacing: normal; orphans: 2; text-indent: 0px; text-transform: none; widows: 2; word-spacing: 0px; -webkit-text-stroke-width: 0px; white-space: normal; background-color: rgb(251, 251, 251); text-decoration-thickness: initial; text-decoration-style: initial; text-decoration-color: initial; float: none; display: inline !important;&quot;&gt;「ゲームルーム&lt;/span&gt;&lt;div&gt;&lt;span style=&quot;color: rgb(0, 0, 0); font-family: Helvetica; font-size: 16px; font-style: normal; font-variant-ligatures: normal; font-variant-caps: normal; font-weight: 700; letter-spacing: normal; orphans: 2; text-indent: 0px; text-transform: none; widows: 2; word-spacing: 0px; -webkit-text-stroke-width: 0px; white-space: normal; background-color: rgb(251, 251, 251); text-decoration-thickness: initial; text-decoration-style: initial; text-decoration-color: initial; float: none; display: inline !important;&quot;&gt;管理」&lt;/span&gt;&lt;/div&gt;" style="text;whiteSpace=wrap;html=1;align=center;" parent="WIyWlLk6GJQsqaUBKTNV-1" vertex="1">
          <mxGeometry x="950" y="90" width="150" height="30" as="geometry" />
        </mxCell>
        <mxCell id="AtVpPJ6zDkACYOzKNUNn-15" value="" style="endArrow=classic;html=1;rounded=0;exitX=1;exitY=1;exitDx=0;exitDy=0;strokeWidth=3;dashed=1;entryX=0;entryY=0.5;entryDx=0;entryDy=0;" parent="WIyWlLk6GJQsqaUBKTNV-1" source="AtVpPJ6zDkACYOzKNUNn-1" edge="1" target="ZR14jFrq00qd8k6B1fgf-0">
          <mxGeometry width="50" height="50" relative="1" as="geometry">
            <mxPoint x="950" y="230" as="sourcePoint" />
            <mxPoint x="1100" y="600" as="targetPoint" />
          </mxGeometry>
        </mxCell>
        <mxCell id="AtVpPJ6zDkACYOzKNUNn-16" value="&lt;span style=&quot;color: rgb(0, 0, 0); font-family: Helvetica; font-size: 16px; font-style: normal; font-variant-ligatures: normal; font-variant-caps: normal; font-weight: 700; letter-spacing: normal; orphans: 2; text-indent: 0px; text-transform: none; widows: 2; word-spacing: 0px; -webkit-text-stroke-width: 0px; white-space: normal; background-color: rgb(251, 251, 251); text-decoration-thickness: initial; text-decoration-style: initial; text-decoration-color: initial; float: none; display: inline !important;&quot;&gt;「ゲームルーム&lt;/span&gt;&lt;div&gt;&lt;span style=&quot;color: rgb(0, 0, 0); font-family: Helvetica; font-size: 16px; font-style: normal; font-variant-ligatures: normal; font-variant-caps: normal; font-weight: 700; letter-spacing: normal; orphans: 2; text-indent: 0px; text-transform: none; widows: 2; word-spacing: 0px; -webkit-text-stroke-width: 0px; white-space: normal; background-color: rgb(251, 251, 251); text-decoration-thickness: initial; text-decoration-style: initial; text-decoration-color: initial; float: none; display: inline !important;&quot;&gt;参加」&lt;/span&gt;&lt;/div&gt;" style="text;whiteSpace=wrap;html=1;align=center;" parent="WIyWlLk6GJQsqaUBKTNV-1" vertex="1">
          <mxGeometry x="970" y="260" width="150" height="30" as="geometry" />
        </mxCell>
        <mxCell id="AtVpPJ6zDkACYOzKNUNn-17" value="" style="endArrow=classic;html=1;rounded=0;exitX=0.5;exitY=1;exitDx=0;exitDy=0;strokeWidth=3;" parent="WIyWlLk6GJQsqaUBKTNV-1" source="AtVpPJ6zDkACYOzKNUNn-1" edge="1">
          <mxGeometry width="50" height="50" relative="1" as="geometry">
            <mxPoint x="810" y="279" as="sourcePoint" />
            <mxPoint x="860" y="260" as="targetPoint" />
          </mxGeometry>
        </mxCell>
        <mxCell id="AtVpPJ6zDkACYOzKNUNn-18" value="&lt;span style=&quot;color: rgb(0, 0, 0); font-family: Helvetica; font-size: 16px; font-style: normal; font-variant-ligatures: normal; font-variant-caps: normal; font-weight: 700; letter-spacing: normal; orphans: 2; text-indent: 0px; text-transform: none; widows: 2; word-spacing: 0px; -webkit-text-stroke-width: 0px; white-space: normal; background-color: rgb(251, 251, 251); text-decoration-thickness: initial; text-decoration-style: initial; text-decoration-color: initial; float: none; display: inline !important;&quot;&gt;「ログアウト&lt;/span&gt;&lt;span style=&quot;font-size: 16px; font-weight: 700;&quot;&gt;」&lt;/span&gt;" style="text;whiteSpace=wrap;html=1;align=center;" parent="WIyWlLk6GJQsqaUBKTNV-1" vertex="1">
          <mxGeometry x="850" y="210" width="150" height="30" as="geometry" />
        </mxCell>
        <mxCell id="AtVpPJ6zDkACYOzKNUNn-19" value="ログアウトページ&lt;div&gt;(/logout)&lt;/div&gt;" style="rounded=0;whiteSpace=wrap;html=1;fontStyle=1;fontSize=16;strokeWidth=2;" parent="WIyWlLk6GJQsqaUBKTNV-1" vertex="1">
          <mxGeometry x="760" y="360" width="200" height="120" as="geometry" />
        </mxCell>
        <mxCell id="AtVpPJ6zDkACYOzKNUNn-20" value="" style="endArrow=classic;html=1;rounded=0;exitX=0;exitY=0.5;exitDx=0;exitDy=0;strokeWidth=3;" parent="WIyWlLk6GJQsqaUBKTNV-1" source="AtVpPJ6zDkACYOzKNUNn-19" edge="1">
          <mxGeometry width="50" height="50" relative="1" as="geometry">
            <mxPoint x="730" y="300" as="sourcePoint" />
            <mxPoint x="730" y="420" as="targetPoint" />
          </mxGeometry>
        </mxCell>
        <mxCell id="AtVpPJ6zDkACYOzKNUNn-21" value="&lt;span style=&quot;font-size: 16px;&quot;&gt;&lt;b&gt;[最初のページへ]&lt;/b&gt;&lt;/span&gt;&lt;div&gt;&lt;span style=&quot;font-size: 16px;&quot;&gt;&lt;b&gt;(/)&lt;/b&gt;&lt;/span&gt;&lt;/div&gt;" style="text;whiteSpace=wrap;html=1;align=center;fontStyle=4" parent="WIyWlLk6GJQsqaUBKTNV-1" vertex="1">
          <mxGeometry x="785" y="260" width="150" height="30" as="geometry" />
        </mxCell>
        <mxCell id="AtVpPJ6zDkACYOzKNUNn-22" value="" style="endArrow=classic;html=1;rounded=0;exitX=1;exitY=0.5;exitDx=0;exitDy=0;strokeWidth=3;" parent="WIyWlLk6GJQsqaUBKTNV-1" source="AtVpPJ6zDkACYOzKNUNn-13" edge="1">
          <mxGeometry width="50" height="50" relative="1" as="geometry">
            <mxPoint x="1300" y="140" as="sourcePoint" />
            <mxPoint x="1440" y="140" as="targetPoint" />
          </mxGeometry>
        </mxCell>
        <mxCell id="AtVpPJ6zDkACYOzKNUNn-23" value="&lt;span style=&quot;color: rgb(0, 0, 0); font-family: Helvetica; font-size: 16px; font-style: normal; font-variant-ligatures: normal; font-variant-caps: normal; font-weight: 700; letter-spacing: normal; orphans: 2; text-indent: 0px; text-transform: none; widows: 2; word-spacing: 0px; -webkit-text-stroke-width: 0px; white-space: normal; background-color: rgb(251, 251, 251); text-decoration-thickness: initial; text-decoration-style: initial; text-decoration-color: initial; float: none; display: inline !important;&quot;&gt;「新規作成&lt;/span&gt;&lt;span style=&quot;font-size: 16px; font-weight: 700;&quot;&gt;」&lt;/span&gt;" style="text;whiteSpace=wrap;html=1;align=center;" parent="WIyWlLk6GJQsqaUBKTNV-1" vertex="1">
          <mxGeometry x="1300" y="100" width="140" height="30" as="geometry" />
        </mxCell>
        <mxCell id="AtVpPJ6zDkACYOzKNUNn-24" value="" style="endArrow=classic;html=1;rounded=0;strokeWidth=3;exitX=1;exitY=0.75;exitDx=0;exitDy=0;entryX=0;entryY=0.5;entryDx=0;entryDy=0;" parent="WIyWlLk6GJQsqaUBKTNV-1" source="AtVpPJ6zDkACYOzKNUNn-13" target="AtVpPJ6zDkACYOzKNUNn-37" edge="1">
          <mxGeometry width="50" height="50" relative="1" as="geometry">
            <mxPoint x="1300" y="280" as="sourcePoint" />
            <mxPoint x="1440" y="280" as="targetPoint" />
          </mxGeometry>
        </mxCell>
        <mxCell id="AtVpPJ6zDkACYOzKNUNn-25" value="&lt;span style=&quot;color: rgb(0, 0, 0); font-family: Helvetica; font-size: 16px; font-style: normal; font-variant-ligatures: normal; font-variant-caps: normal; font-weight: 700; letter-spacing: normal; orphans: 2; text-indent: 0px; text-transform: none; widows: 2; word-spacing: 0px; -webkit-text-stroke-width: 0px; white-space: normal; background-color: rgb(251, 251, 251); text-decoration-thickness: initial; text-decoration-style: initial; text-decoration-color: initial; float: none; display: inline !important;&quot;&gt;「削除&lt;/span&gt;&lt;span style=&quot;font-size: 16px; font-weight: 700;&quot;&gt;」&lt;/span&gt;" style="text;whiteSpace=wrap;html=1;align=center;" parent="WIyWlLk6GJQsqaUBKTNV-1" vertex="1">
          <mxGeometry x="1280" y="250" width="140" height="30" as="geometry" />
        </mxCell>
        <mxCell id="AtVpPJ6zDkACYOzKNUNn-26" value="" style="endArrow=classic;html=1;rounded=0;exitX=0.5;exitY=1;exitDx=0;exitDy=0;strokeWidth=3;dashed=1;entryX=0;entryY=0.5;entryDx=0;entryDy=0;" parent="WIyWlLk6GJQsqaUBKTNV-1" source="AtVpPJ6zDkACYOzKNUNn-13" target="AtVpPJ6zDkACYOzKNUNn-29" edge="1">
          <mxGeometry width="50" height="50" relative="1" as="geometry">
            <mxPoint x="1300" y="330" as="sourcePoint" />
            <mxPoint x="1440" y="390" as="targetPoint" />
            <Array as="points">
              <mxPoint x="1200" y="500" />
            </Array>
          </mxGeometry>
        </mxCell>
        <mxCell id="AtVpPJ6zDkACYOzKNUNn-27" value="&lt;span style=&quot;color: rgb(0, 0, 0); font-family: Helvetica; font-size: 16px; font-style: normal; font-variant-ligatures: normal; font-variant-caps: normal; font-weight: 700; letter-spacing: normal; orphans: 2; text-indent: 0px; text-transform: none; widows: 2; word-spacing: 0px; -webkit-text-stroke-width: 0px; white-space: normal; background-color: rgb(251, 251, 251); text-decoration-thickness: initial; text-decoration-style: initial; text-decoration-color: initial; float: none; display: inline !important;&quot;&gt;「公開&lt;/span&gt;&lt;span style=&quot;font-size: 16px; font-weight: 700;&quot;&gt;」&lt;/span&gt;" style="text;whiteSpace=wrap;html=1;align=center;" parent="WIyWlLk6GJQsqaUBKTNV-1" vertex="1">
          <mxGeometry x="1250" y="460" width="140" height="30" as="geometry" />
        </mxCell>
        <mxCell id="AtVpPJ6zDkACYOzKNUNn-28" value="ゲームルーム&lt;div&gt;新規作成ページ&lt;div&gt;(/gameroom&lt;/div&gt;&lt;div&gt;/create)&lt;/div&gt;&lt;/div&gt;" style="rounded=0;whiteSpace=wrap;html=1;fontStyle=1;fontSize=16;strokeWidth=2;" parent="WIyWlLk6GJQsqaUBKTNV-1" vertex="1">
          <mxGeometry x="1440" y="80" width="200" height="120" as="geometry" />
        </mxCell>
        <mxCell id="AtVpPJ6zDkACYOzKNUNn-29" value="ゲームルーム&lt;div&gt;公開前準備ページ&lt;br&gt;&lt;div&gt;(/gameroom&lt;/div&gt;&lt;div&gt;/prepare_open)&lt;/div&gt;&lt;/div&gt;" style="rounded=0;whiteSpace=wrap;html=1;fontStyle=1;fontSize=16;strokeWidth=2;dashed=1;" parent="WIyWlLk6GJQsqaUBKTNV-1" vertex="1">
          <mxGeometry x="1440" y="440" width="200" height="120" as="geometry" />
        </mxCell>
        <mxCell id="AtVpPJ6zDkACYOzKNUNn-30" value="ゲームルーム主催者&lt;div&gt;開始前(待機)ページ&lt;br&gt;&lt;div&gt;(/gameroom&lt;/div&gt;&lt;div&gt;/standby)&lt;/div&gt;&lt;/div&gt;" style="rounded=0;whiteSpace=wrap;html=1;fontStyle=1;fontSize=16;strokeWidth=2;dashed=1;" parent="WIyWlLk6GJQsqaUBKTNV-1" vertex="1">
          <mxGeometry x="1780" y="440" width="200" height="120" as="geometry" />
        </mxCell>
        <mxCell id="AtVpPJ6zDkACYOzKNUNn-31" value="" style="endArrow=classic;html=1;rounded=0;strokeWidth=3;dashed=1;entryX=0;entryY=0.5;entryDx=0;entryDy=0;exitX=1;exitY=0.5;exitDx=0;exitDy=0;" parent="WIyWlLk6GJQsqaUBKTNV-1" source="AtVpPJ6zDkACYOzKNUNn-29" target="AtVpPJ6zDkACYOzKNUNn-30" edge="1">
          <mxGeometry width="50" height="50" relative="1" as="geometry">
            <mxPoint x="1310" y="390" as="sourcePoint" />
            <mxPoint x="1450" y="390" as="targetPoint" />
          </mxGeometry>
        </mxCell>
        <mxCell id="AtVpPJ6zDkACYOzKNUNn-32" value="&lt;span style=&quot;color: rgb(0, 0, 0); font-family: Helvetica; font-size: 16px; font-style: normal; font-variant-ligatures: normal; font-variant-caps: normal; font-weight: 700; letter-spacing: normal; orphans: 2; text-indent: 0px; text-transform: none; widows: 2; word-spacing: 0px; -webkit-text-stroke-width: 0px; white-space: normal; background-color: rgb(251, 251, 251); text-decoration-thickness: initial; text-decoration-style: initial; text-decoration-color: initial; float: none; display: inline !important;&quot;&gt;「準備完了&lt;/span&gt;&lt;span style=&quot;font-size: 16px; font-weight: 700;&quot;&gt;」&lt;/span&gt;" style="text;whiteSpace=wrap;html=1;align=center;" parent="WIyWlLk6GJQsqaUBKTNV-1" vertex="1">
          <mxGeometry x="1640" y="460" width="140" height="30" as="geometry" />
        </mxCell>
        <mxCell id="AtVpPJ6zDkACYOzKNUNn-33" value="" style="endArrow=classic;html=1;rounded=0;strokeWidth=3;dashed=1;exitX=1;exitY=0.5;exitDx=0;exitDy=0;entryX=0;entryY=0.5;entryDx=0;entryDy=0;" parent="WIyWlLk6GJQsqaUBKTNV-1" source="AtVpPJ6zDkACYOzKNUNn-30" edge="1" target="pH4CJCZ5LqVkKEiUWvyl-15">
          <mxGeometry width="50" height="50" relative="1" as="geometry">
            <mxPoint x="2040" y="490.48" as="sourcePoint" />
            <mxPoint x="2120" y="500" as="targetPoint" />
          </mxGeometry>
        </mxCell>
        <mxCell id="AtVpPJ6zDkACYOzKNUNn-34" value="&lt;span style=&quot;color: rgb(0, 0, 0); font-family: Helvetica; font-size: 16px; font-style: normal; font-variant-ligatures: normal; font-variant-caps: normal; font-weight: 700; letter-spacing: normal; orphans: 2; text-indent: 0px; text-transform: none; widows: 2; word-spacing: 0px; -webkit-text-stroke-width: 0px; white-space: normal; background-color: rgb(251, 251, 251); text-decoration-thickness: initial; text-decoration-style: initial; text-decoration-color: initial; float: none; display: inline !important;&quot;&gt;「ゲーム開始&lt;/span&gt;&lt;span style=&quot;font-size: 16px; font-weight: 700;&quot;&gt;」&lt;/span&gt;" style="text;whiteSpace=wrap;html=1;align=center;" parent="WIyWlLk6GJQsqaUBKTNV-1" vertex="1">
          <mxGeometry x="1980" y="510" width="140" height="30" as="geometry" />
        </mxCell>
        <mxCell id="AtVpPJ6zDkACYOzKNUNn-36" value="&lt;span style=&quot;color: rgb(0, 0, 0); font-family: Helvetica; font-size: 16px; font-style: normal; font-variant-ligatures: normal; font-variant-caps: normal; font-weight: 700; letter-spacing: normal; orphans: 2; text-indent: 0px; text-transform: none; widows: 2; word-spacing: 0px; -webkit-text-stroke-width: 0px; white-space: normal; background-color: rgb(251, 251, 251); text-decoration-thickness: initial; text-decoration-style: initial; text-decoration-color: initial; float: none; display: inline !important;&quot;&gt;「キャンセル&lt;/span&gt;&lt;span style=&quot;font-size: 16px; font-weight: 700;&quot;&gt;」&lt;/span&gt;" style="text;whiteSpace=wrap;html=1;align=center;" parent="WIyWlLk6GJQsqaUBKTNV-1" vertex="1">
          <mxGeometry x="1810" y="590" width="140" height="30" as="geometry" />
        </mxCell>
        <mxCell id="AtVpPJ6zDkACYOzKNUNn-37" value="ゲームルーム&lt;div&gt;削除(確認)ページ&lt;br&gt;&lt;div&gt;(/gameroom&lt;/div&gt;&lt;div&gt;/delete)&lt;/div&gt;&lt;/div&gt;" style="rounded=0;whiteSpace=wrap;html=1;fontStyle=1;fontSize=16;strokeWidth=2;" parent="WIyWlLk6GJQsqaUBKTNV-1" vertex="1">
          <mxGeometry x="1440" y="260" width="200" height="120" as="geometry" />
        </mxCell>
        <mxCell id="AtVpPJ6zDkACYOzKNUNn-39" value="" style="endArrow=classic;html=1;rounded=0;exitX=0;exitY=0.25;exitDx=0;exitDy=0;strokeWidth=3;entryX=0;entryY=0.5;entryDx=0;entryDy=0;" parent="WIyWlLk6GJQsqaUBKTNV-1" source="AtVpPJ6zDkACYOzKNUNn-23" target="AtVpPJ6zDkACYOzKNUNn-42" edge="1">
          <mxGeometry width="50" height="50" relative="1" as="geometry">
            <mxPoint x="1250" y="50" as="sourcePoint" />
            <mxPoint x="1440" as="targetPoint" />
          </mxGeometry>
        </mxCell>
        <mxCell id="AtVpPJ6zDkACYOzKNUNn-41" value="&lt;span style=&quot;color: rgb(0, 0, 0); font-family: Helvetica; font-size: 16px; font-style: normal; font-variant-ligatures: normal; font-variant-caps: normal; font-weight: 700; letter-spacing: normal; orphans: 2; text-indent: 0px; text-transform: none; widows: 2; word-spacing: 0px; -webkit-text-stroke-width: 0px; white-space: normal; background-color: rgb(251, 251, 251); text-decoration-thickness: initial; text-decoration-style: initial; text-decoration-color: initial; float: none; display: inline !important;&quot;&gt;「問題登録&lt;/span&gt;&lt;span style=&quot;font-size: 16px; font-weight: 700;&quot;&gt;」&lt;/span&gt;" style="text;whiteSpace=wrap;html=1;align=center;" parent="WIyWlLk6GJQsqaUBKTNV-1" vertex="1">
          <mxGeometry x="1250" width="140" height="30" as="geometry" />
        </mxCell>
        <object label="ゲームルーム&lt;div&gt;問題登録ページ&lt;div&gt;(/gameroom&lt;/div&gt;&lt;div&gt;/register_quiz)&lt;/div&gt;&lt;/div&gt;" URL_GameRoom="/gameroom" id="AtVpPJ6zDkACYOzKNUNn-42">
          <mxCell style="rounded=0;whiteSpace=wrap;html=1;fontStyle=1;fontSize=16;strokeWidth=2;" parent="WIyWlLk6GJQsqaUBKTNV-1" vertex="1">
            <mxGeometry x="1440" y="-100" width="200" height="120" as="geometry" />
          </mxCell>
        </object>
        <mxCell id="AtVpPJ6zDkACYOzKNUNn-43" value="" style="endArrow=classic;html=1;rounded=0;exitX=0.5;exitY=0;exitDx=0;exitDy=0;strokeWidth=3;entryX=0.5;entryY=1;entryDx=0;entryDy=0;" parent="WIyWlLk6GJQsqaUBKTNV-1" source="AtVpPJ6zDkACYOzKNUNn-28" target="AtVpPJ6zDkACYOzKNUNn-42" edge="1">
          <mxGeometry width="50" height="50" relative="1" as="geometry">
            <mxPoint x="1310" y="118" as="sourcePoint" />
            <mxPoint x="1450" y="10" as="targetPoint" />
          </mxGeometry>
        </mxCell>
        <mxCell id="AtVpPJ6zDkACYOzKNUNn-44" value="&lt;span style=&quot;color: rgb(0, 0, 0); font-family: Helvetica; font-size: 16px; font-style: normal; font-variant-ligatures: normal; font-variant-caps: normal; font-weight: 700; letter-spacing: normal; orphans: 2; text-indent: 0px; text-transform: none; widows: 2; word-spacing: 0px; -webkit-text-stroke-width: 0px; white-space: normal; background-color: rgb(251, 251, 251); text-decoration-thickness: initial; text-decoration-style: initial; text-decoration-color: initial; float: none; display: inline !important;&quot;&gt;「問題登録&lt;/span&gt;&lt;span style=&quot;font-size: 16px; font-weight: 700;&quot;&gt;」&lt;/span&gt;" style="text;whiteSpace=wrap;html=1;align=center;" parent="WIyWlLk6GJQsqaUBKTNV-1" vertex="1">
          <mxGeometry x="1520" y="40" width="140" height="30" as="geometry" />
        </mxCell>
        <mxCell id="pH4CJCZ5LqVkKEiUWvyl-0" value="" style="endArrow=classic;html=1;rounded=0;exitX=1;exitY=0.5;exitDx=0;exitDy=0;strokeWidth=3;" parent="WIyWlLk6GJQsqaUBKTNV-1" edge="1">
          <mxGeometry width="50" height="50" relative="1" as="geometry">
            <mxPoint x="80" y="-80" as="sourcePoint" />
            <mxPoint x="160" y="-80" as="targetPoint" />
          </mxGeometry>
        </mxCell>
        <mxCell id="pH4CJCZ5LqVkKEiUWvyl-1" value="" style="endArrow=none;html=1;rounded=0;exitX=1;exitY=0.5;exitDx=0;exitDy=0;strokeWidth=2;endFill=0;" parent="WIyWlLk6GJQsqaUBKTNV-1" edge="1">
          <mxGeometry width="50" height="50" relative="1" as="geometry">
            <mxPoint x="80" y="-100" as="sourcePoint" />
            <mxPoint x="160" y="-100" as="targetPoint" />
          </mxGeometry>
        </mxCell>
        <mxCell id="pH4CJCZ5LqVkKEiUWvyl-2" value="" style="endArrow=classic;html=1;rounded=0;exitX=1;exitY=0.5;exitDx=0;exitDy=0;strokeWidth=3;curved=0;shadow=0;flowAnimation=0;jumpStyle=none;dashed=1;" parent="WIyWlLk6GJQsqaUBKTNV-1" edge="1">
          <mxGeometry width="50" height="50" relative="1" as="geometry">
            <mxPoint x="80" y="-20" as="sourcePoint" />
            <mxPoint x="160" y="-20" as="targetPoint" />
          </mxGeometry>
        </mxCell>
        <mxCell id="pH4CJCZ5LqVkKEiUWvyl-3" value="" style="endArrow=none;html=1;rounded=0;exitX=1;exitY=0.5;exitDx=0;exitDy=0;strokeWidth=2;endFill=0;curved=0;targetPerimeterSpacing=3;shadow=0;flowAnimation=0;jumpStyle=none;dashed=1;" parent="WIyWlLk6GJQsqaUBKTNV-1" edge="1">
          <mxGeometry width="50" height="50" relative="1" as="geometry">
            <mxPoint x="80" y="-40" as="sourcePoint" />
            <mxPoint x="160" y="-40" as="targetPoint" />
          </mxGeometry>
        </mxCell>
        <mxCell id="pH4CJCZ5LqVkKEiUWvyl-4" value="" style="endArrow=classic;html=1;rounded=0;exitX=1;exitY=0.5;exitDx=0;exitDy=0;strokeWidth=3;curved=0;shadow=0;flowAnimation=0;jumpStyle=none;dashed=1;dashPattern=1 1;fillColor=#dae8fc;strokeColor=#6c8ebf;" parent="WIyWlLk6GJQsqaUBKTNV-1" edge="1">
          <mxGeometry width="50" height="50" relative="1" as="geometry">
            <mxPoint x="80" y="39.29" as="sourcePoint" />
            <mxPoint x="160" y="39.29" as="targetPoint" />
          </mxGeometry>
        </mxCell>
        <mxCell id="pH4CJCZ5LqVkKEiUWvyl-5" value="" style="endArrow=none;html=1;rounded=0;exitX=1;exitY=0.5;exitDx=0;exitDy=0;strokeWidth=2;endFill=0;curved=0;targetPerimeterSpacing=3;shadow=0;flowAnimation=0;jumpStyle=none;dashed=1;dashPattern=1 1;fillColor=#dae8fc;strokeColor=#6c8ebf;" parent="WIyWlLk6GJQsqaUBKTNV-1" edge="1">
          <mxGeometry width="50" height="50" relative="1" as="geometry">
            <mxPoint x="80" y="19.29" as="sourcePoint" />
            <mxPoint x="160" y="19.29" as="targetPoint" />
          </mxGeometry>
        </mxCell>
        <mxCell id="pH4CJCZ5LqVkKEiUWvyl-6" value="&lt;span style=&quot;color: rgb(0, 0, 0); font-family: Helvetica; font-size: 16px; font-style: normal; font-variant-ligatures: normal; font-variant-caps: normal; letter-spacing: normal; orphans: 2; text-indent: 0px; text-transform: none; widows: 2; word-spacing: 0px; -webkit-text-stroke-width: 0px; white-space: normal; background-color: rgb(251, 251, 251); text-decoration-thickness: initial; text-decoration-style: initial; text-decoration-color: initial; float: none; display: inline !important;&quot;&gt;実線: 実装済み&lt;/span&gt;" style="text;whiteSpace=wrap;html=1;align=left;" parent="WIyWlLk6GJQsqaUBKTNV-1" vertex="1">
          <mxGeometry x="170" y="-105" width="170" height="30" as="geometry" />
        </mxCell>
        <mxCell id="pH4CJCZ5LqVkKEiUWvyl-7" value="&lt;span style=&quot;color: rgb(0, 0, 0); font-family: Helvetica; font-size: 16px; font-style: normal; font-variant-ligatures: normal; font-variant-caps: normal; letter-spacing: normal; orphans: 2; text-indent: 0px; text-transform: none; widows: 2; word-spacing: 0px; -webkit-text-stroke-width: 0px; white-space: normal; background-color: rgb(251, 251, 251); text-decoration-thickness: initial; text-decoration-style: initial; text-decoration-color: initial; float: none; display: inline !important;&quot;&gt;破線: 設計済み&lt;/span&gt;" style="text;whiteSpace=wrap;html=1;align=left;" parent="WIyWlLk6GJQsqaUBKTNV-1" vertex="1">
          <mxGeometry x="170" y="-45" width="160" height="30" as="geometry" />
        </mxCell>
        <mxCell id="pH4CJCZ5LqVkKEiUWvyl-8" value="&lt;span style=&quot;color: rgb(0, 0, 0); font-family: Helvetica; font-size: 16px; font-style: normal; font-variant-ligatures: normal; font-variant-caps: normal; letter-spacing: normal; orphans: 2; text-indent: 0px; text-transform: none; widows: 2; word-spacing: 0px; -webkit-text-stroke-width: 0px; white-space: normal; background-color: rgb(251, 251, 251); text-decoration-thickness: initial; text-decoration-style: initial; text-decoration-color: initial; float: none; display: inline !important;&quot;&gt;青点線: 提案&lt;/span&gt;" style="text;whiteSpace=wrap;html=1;align=left;" parent="WIyWlLk6GJQsqaUBKTNV-1" vertex="1">
          <mxGeometry x="170" y="15" width="160" height="30" as="geometry" />
        </mxCell>
        <mxCell id="pH4CJCZ5LqVkKEiUWvyl-9" value="" style="endArrow=classic;html=1;rounded=0;exitX=1;exitY=0.5;exitDx=0;exitDy=0;strokeWidth=3;entryX=0;entryY=0.5;entryDx=0;entryDy=0;" parent="WIyWlLk6GJQsqaUBKTNV-1" source="AtVpPJ6zDkACYOzKNUNn-42" target="pH4CJCZ5LqVkKEiUWvyl-10" edge="1">
          <mxGeometry width="50" height="50" relative="1" as="geometry">
            <mxPoint x="1710" as="sourcePoint" />
            <mxPoint x="1720" y="-40" as="targetPoint" />
          </mxGeometry>
        </mxCell>
        <mxCell id="pH4CJCZ5LqVkKEiUWvyl-10" value="&lt;div&gt;(ゲームルーム紐づけ)&lt;br&gt;問題作成/編集ページ&lt;div&gt;(/gameroom&lt;/div&gt;&lt;div&gt;/edit_quiz)&lt;/div&gt;&lt;/div&gt;" style="rounded=0;whiteSpace=wrap;html=1;fontStyle=1;fontSize=16;strokeWidth=2;" parent="WIyWlLk6GJQsqaUBKTNV-1" vertex="1">
          <mxGeometry x="1780" y="-100" width="200" height="120" as="geometry" />
        </mxCell>
        <mxCell id="pH4CJCZ5LqVkKEiUWvyl-11" value="&lt;span style=&quot;color: rgb(0, 0, 0); font-family: Helvetica; font-size: 16px; font-style: normal; font-variant-ligatures: normal; font-variant-caps: normal; font-weight: 700; letter-spacing: normal; orphans: 2; text-indent: 0px; text-transform: none; widows: 2; word-spacing: 0px; -webkit-text-stroke-width: 0px; white-space: normal; background-color: rgb(251, 251, 251); text-decoration-thickness: initial; text-decoration-style: initial; text-decoration-color: initial; float: none; display: inline !important;&quot;&gt;「問題作成&lt;/span&gt;&lt;span style=&quot;font-size: 16px; font-weight: 700;&quot;&gt;」&lt;/span&gt;&lt;div&gt;&lt;span style=&quot;font-size: 16px; font-weight: 700;&quot;&gt;(「問題編集」)&lt;/span&gt;&lt;/div&gt;" style="text;whiteSpace=wrap;html=1;align=center;" parent="WIyWlLk6GJQsqaUBKTNV-1" vertex="1">
          <mxGeometry x="1640" y="-90" width="140" height="45" as="geometry" />
        </mxCell>
        <mxCell id="pH4CJCZ5LqVkKEiUWvyl-12" value="&lt;span style=&quot;font-size: 16px;&quot;&gt;遷移の表記：&lt;/span&gt;&lt;div&gt;&lt;span style=&quot;font-size: 16px;&quot;&gt;「」: アクションによる遷移&lt;/span&gt;&lt;/div&gt;&lt;div&gt;&lt;span style=&quot;font-size: 16px;&quot;&gt;(通常): それ以外による遷移&lt;/span&gt;&lt;/div&gt;&lt;div&gt;&lt;span style=&quot;font-size: 16px;&quot;&gt;&lt;br&gt;&lt;/span&gt;&lt;/div&gt;" style="text;whiteSpace=wrap;html=1;align=left;" parent="WIyWlLk6GJQsqaUBKTNV-1" vertex="1">
          <mxGeometry x="360" y="-105" width="260" height="30" as="geometry" />
        </mxCell>
        <mxCell id="pH4CJCZ5LqVkKEiUWvyl-13" value="" style="endArrow=classic;html=1;rounded=0;exitX=0.5;exitY=1;exitDx=0;exitDy=0;strokeWidth=3;dashed=1;entryX=0.397;entryY=1.002;entryDx=0;entryDy=0;entryPerimeter=0;" parent="WIyWlLk6GJQsqaUBKTNV-1" source="AtVpPJ6zDkACYOzKNUNn-30" target="AtVpPJ6zDkACYOzKNUNn-13" edge="1">
          <mxGeometry width="50" height="50" relative="1" as="geometry">
            <mxPoint x="1680" y="690" as="sourcePoint" />
            <mxPoint x="1820" y="690" as="targetPoint" />
            <Array as="points">
              <mxPoint x="1880" y="580" />
              <mxPoint x="1179" y="580" />
            </Array>
          </mxGeometry>
        </mxCell>
        <mxCell id="pH4CJCZ5LqVkKEiUWvyl-15" value="[主催者]&lt;div&gt;出題確認ページ&lt;/div&gt;&lt;div&gt;(/playing&lt;/div&gt;&lt;div&gt;/wait)&lt;/div&gt;" style="rounded=0;whiteSpace=wrap;html=1;fontStyle=1;fontSize=16;strokeWidth=2;dashed=1;fillColor=#dae8fc;strokeColor=#6c8ebf;dashPattern=1 1;" parent="WIyWlLk6GJQsqaUBKTNV-1" vertex="1">
          <mxGeometry x="2260" y="440" width="200" height="120" as="geometry" />
        </mxCell>
        <mxCell id="pH4CJCZ5LqVkKEiUWvyl-16" value="" style="endArrow=classic;html=1;rounded=0;strokeWidth=3;dashed=1;fillColor=#dae8fc;strokeColor=#6c8ebf;dashPattern=1 1;entryX=0;entryY=0.5;entryDx=0;entryDy=0;" parent="WIyWlLk6GJQsqaUBKTNV-1" target="pH4CJCZ5LqVkKEiUWvyl-17" edge="1">
          <mxGeometry width="50" height="50" relative="1" as="geometry">
            <mxPoint x="1710" y="60" as="sourcePoint" />
            <mxPoint x="1770" y="120" as="targetPoint" />
          </mxGeometry>
        </mxCell>
        <mxCell id="pH4CJCZ5LqVkKEiUWvyl-17" value="(ゲームルーム紐づけ)&lt;br&gt;問題削除ページ&lt;div&gt;(/gameroom&lt;/div&gt;&lt;div&gt;/&lt;span style=&quot;background-color: initial;&quot;&gt;delete_quiz)&lt;/span&gt;&lt;/div&gt;" style="rounded=0;whiteSpace=wrap;html=1;fontStyle=1;fontSize=16;strokeWidth=2;dashed=1;fillColor=#dae8fc;strokeColor=#6c8ebf;dashPattern=1 1;" parent="WIyWlLk6GJQsqaUBKTNV-1" vertex="1">
          <mxGeometry x="1780" y="80" width="200" height="120" as="geometry" />
        </mxCell>
        <mxCell id="pH4CJCZ5LqVkKEiUWvyl-20" value="&lt;span style=&quot;font-size: 16px; font-weight: 700;&quot;&gt;ゲームルーム一覧&lt;/span&gt;" style="text;whiteSpace=wrap;html=1;align=center;" parent="WIyWlLk6GJQsqaUBKTNV-1" vertex="1">
          <mxGeometry x="1130" y="50" width="140" height="30" as="geometry" />
        </mxCell>
        <mxCell id="pH4CJCZ5LqVkKEiUWvyl-21" value="&lt;span style=&quot;font-size: 16px; font-weight: 700;&quot;&gt;問題一覧&lt;/span&gt;" style="text;whiteSpace=wrap;html=1;align=center;" parent="WIyWlLk6GJQsqaUBKTNV-1" vertex="1">
          <mxGeometry x="1470" y="-130" width="140" height="30" as="geometry" />
        </mxCell>
        <mxCell id="pH4CJCZ5LqVkKEiUWvyl-22" value="&lt;span style=&quot;font-size: 16px; font-weight: 700;&quot;&gt;単一の問題情報&lt;/span&gt;" style="text;whiteSpace=wrap;html=1;align=center;" parent="WIyWlLk6GJQsqaUBKTNV-1" vertex="1">
          <mxGeometry x="1810" y="-130" width="140" height="30" as="geometry" />
        </mxCell>
        <mxCell id="ZR14jFrq00qd8k6B1fgf-0" value="参加ゲームルーム&lt;div&gt;選択ページ&lt;/div&gt;&lt;div&gt;(/playgame)&lt;/div&gt;" style="rounded=0;whiteSpace=wrap;html=1;fontStyle=1;fontSize=16;strokeWidth=2;dashed=1;fillColor=#dae8fc;strokeColor=#6c8ebf;dashPattern=1 1;" vertex="1" parent="WIyWlLk6GJQsqaUBKTNV-1">
          <mxGeometry x="1100" y="660" width="200" height="120" as="geometry" />
        </mxCell>
        <mxCell id="ZR14jFrq00qd8k6B1fgf-1" value="" style="endArrow=classic;html=1;rounded=0;strokeWidth=3;dashed=1;fillColor=#dae8fc;strokeColor=#6c8ebf;dashPattern=1 1;entryX=0;entryY=0.5;entryDx=0;entryDy=0;exitX=1;exitY=0.5;exitDx=0;exitDy=0;" edge="1" parent="WIyWlLk6GJQsqaUBKTNV-1" source="ZR14jFrq00qd8k6B1fgf-0" target="ZR14jFrq00qd8k6B1fgf-5">
          <mxGeometry width="50" height="50" relative="1" as="geometry">
            <mxPoint x="1340" y="650" as="sourcePoint" />
            <mxPoint x="1410" y="730" as="targetPoint" />
          </mxGeometry>
        </mxCell>
        <mxCell id="ZR14jFrq00qd8k6B1fgf-2" value="ゲームルーム参加者&lt;div&gt;開始前(待機)ページ&lt;/div&gt;&lt;div&gt;(/playgame&lt;/div&gt;&lt;div&gt;/standby)&lt;/div&gt;" style="rounded=0;whiteSpace=wrap;html=1;fontStyle=1;fontSize=16;strokeWidth=2;dashed=1;fillColor=#dae8fc;strokeColor=#6c8ebf;dashPattern=1 1;" vertex="1" parent="WIyWlLk6GJQsqaUBKTNV-1">
          <mxGeometry x="1780" y="660" width="200" height="120" as="geometry" />
        </mxCell>
        <mxCell id="ZR14jFrq00qd8k6B1fgf-4" value="&lt;span style=&quot;font-size: 16px;&quot;&gt;&lt;b&gt;ゲームルーム選択&lt;/b&gt;&lt;/span&gt;" style="text;whiteSpace=wrap;html=1;align=center;" vertex="1" parent="WIyWlLk6GJQsqaUBKTNV-1">
          <mxGeometry x="1300" y="680" width="140" height="30" as="geometry" />
        </mxCell>
        <mxCell id="ZR14jFrq00qd8k6B1fgf-5" value="&lt;div&gt;参加ゲームルーム&lt;/div&gt;&lt;div&gt;入室確認ページ&lt;/div&gt;&lt;div&gt;(/playgame&lt;/div&gt;&lt;div&gt;/join_check)&lt;/div&gt;" style="rounded=0;whiteSpace=wrap;html=1;fontStyle=1;fontSize=16;strokeWidth=2;dashed=1;fillColor=#dae8fc;strokeColor=#6c8ebf;dashPattern=1 1;" vertex="1" parent="WIyWlLk6GJQsqaUBKTNV-1">
          <mxGeometry x="1440" y="660" width="200" height="120" as="geometry" />
        </mxCell>
        <mxCell id="ZR14jFrq00qd8k6B1fgf-6" value="" style="endArrow=classic;html=1;rounded=0;strokeWidth=3;dashed=1;fillColor=#dae8fc;strokeColor=#6c8ebf;dashPattern=1 1;entryX=0;entryY=0.5;entryDx=0;entryDy=0;exitX=1;exitY=0.5;exitDx=0;exitDy=0;" edge="1" parent="WIyWlLk6GJQsqaUBKTNV-1" source="ZR14jFrq00qd8k6B1fgf-5" target="ZR14jFrq00qd8k6B1fgf-2">
          <mxGeometry width="50" height="50" relative="1" as="geometry">
            <mxPoint x="1580" y="690" as="sourcePoint" />
            <mxPoint x="1770" y="780" as="targetPoint" />
          </mxGeometry>
        </mxCell>
        <mxCell id="ZR14jFrq00qd8k6B1fgf-8" value="&lt;span style=&quot;font-size: 16px;&quot;&gt;&lt;b&gt;「入室」&lt;/b&gt;&lt;/span&gt;" style="text;whiteSpace=wrap;html=1;align=center;" vertex="1" parent="WIyWlLk6GJQsqaUBKTNV-1">
          <mxGeometry x="1640" y="680" width="140" height="30" as="geometry" />
        </mxCell>
        <mxCell id="ZR14jFrq00qd8k6B1fgf-39" value="" style="shape=or;whiteSpace=wrap;html=1;fillColor=#dae8fc;strokeColor=#6c8ebf;strokeWidth=2;dashed=1;dashPattern=1 1;" vertex="1" parent="WIyWlLk6GJQsqaUBKTNV-1">
          <mxGeometry x="2020" y="680" width="60" height="80" as="geometry" />
        </mxCell>
        <mxCell id="ZR14jFrq00qd8k6B1fgf-40" value="" style="endArrow=classic;html=1;rounded=0;strokeWidth=3;dashed=1;fillColor=#dae8fc;strokeColor=#6c8ebf;dashPattern=1 1;entryX=0;entryY=0.5;entryDx=0;entryDy=0;exitX=1;exitY=0.5;exitDx=0;exitDy=0;entryPerimeter=0;" edge="1" parent="WIyWlLk6GJQsqaUBKTNV-1" source="ZR14jFrq00qd8k6B1fgf-2" target="ZR14jFrq00qd8k6B1fgf-39">
          <mxGeometry width="50" height="50" relative="1" as="geometry">
            <mxPoint x="1650" y="730" as="sourcePoint" />
            <mxPoint x="1790" y="730" as="targetPoint" />
          </mxGeometry>
        </mxCell>
        <mxCell id="ZR14jFrq00qd8k6B1fgf-41" value="" style="endArrow=none;html=1;rounded=0;strokeWidth=3;dashed=1;fillColor=#dae8fc;strokeColor=#6c8ebf;dashPattern=1 1;entryX=0;entryY=0.25;entryDx=0;entryDy=0;exitX=1;exitY=0.5;exitDx=0;exitDy=0;entryPerimeter=0;endFill=0;" edge="1" parent="WIyWlLk6GJQsqaUBKTNV-1" source="AtVpPJ6zDkACYOzKNUNn-30" target="ZR14jFrq00qd8k6B1fgf-39">
          <mxGeometry width="50" height="50" relative="1" as="geometry">
            <mxPoint x="1990" y="730" as="sourcePoint" />
            <mxPoint x="2030" y="730" as="targetPoint" />
          </mxGeometry>
        </mxCell>
        <mxCell id="ZR14jFrq00qd8k6B1fgf-42" value="" style="endArrow=classic;html=1;rounded=0;strokeWidth=3;dashed=1;fillColor=#dae8fc;strokeColor=#6c8ebf;dashPattern=1 1;entryX=0;entryY=0.5;entryDx=0;entryDy=0;exitX=1;exitY=0.5;exitDx=0;exitDy=0;exitPerimeter=0;" edge="1" parent="WIyWlLk6GJQsqaUBKTNV-1" source="ZR14jFrq00qd8k6B1fgf-39" target="ZR14jFrq00qd8k6B1fgf-43">
          <mxGeometry width="50" height="50" relative="1" as="geometry">
            <mxPoint x="2220" y="720" as="sourcePoint" />
            <mxPoint x="2170" y="730" as="targetPoint" />
          </mxGeometry>
        </mxCell>
        <mxCell id="ZR14jFrq00qd8k6B1fgf-43" value="[参加者]&lt;div&gt;出題待機ページ&lt;/div&gt;&lt;div&gt;(/playing&lt;/div&gt;&lt;div&gt;/wait)&lt;/div&gt;" style="rounded=0;whiteSpace=wrap;html=1;fontStyle=1;fontSize=16;strokeWidth=2;dashed=1;fillColor=#dae8fc;strokeColor=#6c8ebf;dashPattern=1 1;" vertex="1" parent="WIyWlLk6GJQsqaUBKTNV-1">
          <mxGeometry x="2260" y="660" width="200" height="120" as="geometry" />
        </mxCell>
        <mxCell id="ZR14jFrq00qd8k6B1fgf-44" value="&lt;span style=&quot;font-size: 16px;&quot;&gt;&lt;b&gt;自動的遷移&lt;/b&gt;&lt;/span&gt;" style="text;whiteSpace=wrap;html=1;align=center;" vertex="1" parent="WIyWlLk6GJQsqaUBKTNV-1">
          <mxGeometry x="1980" y="760" width="140" height="30" as="geometry" />
        </mxCell>
        <mxCell id="ZR14jFrq00qd8k6B1fgf-45" value="&lt;span style=&quot;color: rgb(0, 0, 0); font-family: Helvetica; font-size: 16px; font-style: normal; font-variant-ligatures: normal; font-variant-caps: normal; font-weight: 700; letter-spacing: normal; orphans: 2; text-indent: 0px; text-transform: none; widows: 2; word-spacing: 0px; -webkit-text-stroke-width: 0px; white-space: normal; background-color: rgb(251, 251, 251); text-decoration-thickness: initial; text-decoration-style: initial; text-decoration-color: initial; float: none; display: inline !important;&quot;&gt;「ゲーム開始&lt;/span&gt;&lt;span style=&quot;font-size: 16px; font-weight: 700;&quot;&gt;」&lt;/span&gt;&lt;div&gt;&lt;span style=&quot;font-size: 16px; font-weight: 700;&quot;&gt;(トリガー)&lt;/span&gt;&lt;/div&gt;" style="text;whiteSpace=wrap;html=1;align=center;" vertex="1" parent="WIyWlLk6GJQsqaUBKTNV-1">
          <mxGeometry x="1990" y="590" width="140" height="30" as="geometry" />
        </mxCell>
        <mxCell id="ZR14jFrq00qd8k6B1fgf-50" value="" style="endArrow=classic;html=1;rounded=0;strokeWidth=3;dashed=1;fillColor=#dae8fc;strokeColor=#6c8ebf;dashPattern=1 1;exitX=1;exitY=0.5;exitDx=0;exitDy=0;entryX=0;entryY=0.5;entryDx=0;entryDy=0;" edge="1" parent="WIyWlLk6GJQsqaUBKTNV-1" source="pH4CJCZ5LqVkKEiUWvyl-15" target="ZR14jFrq00qd8k6B1fgf-52">
          <mxGeometry width="50" height="50" relative="1" as="geometry">
            <mxPoint x="2520" y="500" as="sourcePoint" />
            <mxPoint x="2600" y="500" as="targetPoint" />
          </mxGeometry>
        </mxCell>
        <mxCell id="ZR14jFrq00qd8k6B1fgf-51" value="&lt;span style=&quot;color: rgb(0, 0, 0); font-family: Helvetica; font-size: 16px; font-style: normal; font-variant-ligatures: normal; font-variant-caps: normal; font-weight: 700; letter-spacing: normal; orphans: 2; text-indent: 0px; text-transform: none; widows: 2; word-spacing: 0px; -webkit-text-stroke-width: 0px; white-space: normal; background-color: rgb(251, 251, 251); text-decoration-thickness: initial; text-decoration-style: initial; text-decoration-color: initial; float: none; display: inline !important;&quot;&gt;「出題&lt;/span&gt;&lt;span style=&quot;font-size: 16px; font-weight: 700;&quot;&gt;」&lt;/span&gt;&lt;div&gt;&lt;span style=&quot;font-size: 16px; font-weight: 700;&quot;&gt;([主催者]トリガー)&lt;/span&gt;&lt;/div&gt;" style="text;whiteSpace=wrap;html=1;align=center;" vertex="1" parent="WIyWlLk6GJQsqaUBKTNV-1">
          <mxGeometry x="2460" y="590" width="140" height="30" as="geometry" />
        </mxCell>
        <mxCell id="ZR14jFrq00qd8k6B1fgf-52" value="[主催者]&lt;div&gt;回答待機ページ&lt;/div&gt;&lt;div&gt;(/playing&lt;/div&gt;&lt;div&gt;/answer)&lt;/div&gt;" style="rounded=0;whiteSpace=wrap;html=1;fontStyle=1;fontSize=16;strokeWidth=2;dashed=1;fillColor=#dae8fc;strokeColor=#6c8ebf;dashPattern=1 1;" vertex="1" parent="WIyWlLk6GJQsqaUBKTNV-1">
          <mxGeometry x="2600" y="440" width="200" height="120" as="geometry" />
        </mxCell>
        <mxCell id="ZR14jFrq00qd8k6B1fgf-53" value="" style="shape=or;whiteSpace=wrap;html=1;fillColor=#dae8fc;strokeColor=#6c8ebf;strokeWidth=2;dashed=1;dashPattern=1 1;" vertex="1" parent="WIyWlLk6GJQsqaUBKTNV-1">
          <mxGeometry x="2500" y="680" width="60" height="80" as="geometry" />
        </mxCell>
        <mxCell id="ZR14jFrq00qd8k6B1fgf-54" value="&lt;span style=&quot;font-size: 16px;&quot;&gt;&lt;b&gt;自動的遷移&lt;/b&gt;&lt;/span&gt;" style="text;whiteSpace=wrap;html=1;align=center;" vertex="1" parent="WIyWlLk6GJQsqaUBKTNV-1">
          <mxGeometry x="2460" y="760" width="140" height="30" as="geometry" />
        </mxCell>
        <mxCell id="ZR14jFrq00qd8k6B1fgf-55" value="" style="endArrow=none;html=1;rounded=0;strokeWidth=3;dashed=1;fillColor=#dae8fc;strokeColor=#6c8ebf;dashPattern=1 1;exitX=1;exitY=0.5;exitDx=0;exitDy=0;entryX=0;entryY=0.25;entryDx=0;entryDy=0;entryPerimeter=0;endFill=0;" edge="1" parent="WIyWlLk6GJQsqaUBKTNV-1" source="pH4CJCZ5LqVkKEiUWvyl-15" target="ZR14jFrq00qd8k6B1fgf-53">
          <mxGeometry width="50" height="50" relative="1" as="geometry">
            <mxPoint x="2470" y="510" as="sourcePoint" />
            <mxPoint x="2610" y="510" as="targetPoint" />
          </mxGeometry>
        </mxCell>
        <mxCell id="ZR14jFrq00qd8k6B1fgf-56" value="" style="endArrow=classic;html=1;rounded=0;strokeWidth=3;dashed=1;fillColor=#dae8fc;strokeColor=#6c8ebf;dashPattern=1 1;exitX=1;exitY=0.5;exitDx=0;exitDy=0;entryX=0;entryY=0.5;entryDx=0;entryDy=0;entryPerimeter=0;" edge="1" parent="WIyWlLk6GJQsqaUBKTNV-1" source="ZR14jFrq00qd8k6B1fgf-43" target="ZR14jFrq00qd8k6B1fgf-53">
          <mxGeometry width="50" height="50" relative="1" as="geometry">
            <mxPoint x="2470" y="510" as="sourcePoint" />
            <mxPoint x="2510" y="730" as="targetPoint" />
          </mxGeometry>
        </mxCell>
        <mxCell id="ZR14jFrq00qd8k6B1fgf-57" value="" style="endArrow=classic;html=1;rounded=0;strokeWidth=3;dashed=1;fillColor=#dae8fc;strokeColor=#6c8ebf;dashPattern=1 1;entryX=0;entryY=0.5;entryDx=0;entryDy=0;exitX=1;exitY=0.5;exitDx=0;exitDy=0;exitPerimeter=0;" edge="1" parent="WIyWlLk6GJQsqaUBKTNV-1" source="ZR14jFrq00qd8k6B1fgf-53" target="ZR14jFrq00qd8k6B1fgf-58">
          <mxGeometry width="50" height="50" relative="1" as="geometry">
            <mxPoint x="2570" y="730" as="sourcePoint" />
            <mxPoint x="2571" y="780" as="targetPoint" />
          </mxGeometry>
        </mxCell>
        <mxCell id="ZR14jFrq00qd8k6B1fgf-58" value="[参加者]&lt;div&gt;回答ページ&lt;/div&gt;&lt;div&gt;(/playing&lt;/div&gt;&lt;div&gt;/answer)&lt;/div&gt;" style="rounded=0;whiteSpace=wrap;html=1;fontStyle=1;fontSize=16;strokeWidth=2;dashed=1;fillColor=#dae8fc;strokeColor=#6c8ebf;dashPattern=1 1;" vertex="1" parent="WIyWlLk6GJQsqaUBKTNV-1">
          <mxGeometry x="2600" y="660" width="200" height="120" as="geometry" />
        </mxCell>
        <mxCell id="ZR14jFrq00qd8k6B1fgf-59" value="&lt;span style=&quot;color: rgb(0, 0, 0); font-family: Helvetica; font-size: 16px; font-style: normal; font-variant-ligatures: normal; font-variant-caps: normal; font-weight: 700; letter-spacing: normal; orphans: 2; text-indent: 0px; text-transform: none; widows: 2; word-spacing: 0px; -webkit-text-stroke-width: 0px; white-space: normal; background-color: rgb(251, 251, 251); text-decoration-thickness: initial; text-decoration-style: initial; text-decoration-color: initial; float: none; display: inline !important;&quot;&gt;「出題&lt;/span&gt;&lt;span style=&quot;font-size: 16px; font-weight: 700;&quot;&gt;」&lt;/span&gt;" style="text;whiteSpace=wrap;html=1;align=center;fillColor=none;" vertex="1" parent="WIyWlLk6GJQsqaUBKTNV-1">
          <mxGeometry x="2460" y="460" width="140" height="30" as="geometry" />
        </mxCell>
        <mxCell id="ZR14jFrq00qd8k6B1fgf-60" value="[主催者]&lt;div&gt;回答結果表示ページ&lt;/div&gt;&lt;div&gt;(/playing&lt;/div&gt;&lt;div&gt;/ans_result)&lt;/div&gt;" style="rounded=0;whiteSpace=wrap;html=1;fontStyle=1;fontSize=16;strokeWidth=2;dashed=1;fillColor=#dae8fc;strokeColor=#6c8ebf;dashPattern=1 1;" vertex="1" parent="WIyWlLk6GJQsqaUBKTNV-1">
          <mxGeometry x="2940" y="440" width="200" height="120" as="geometry" />
        </mxCell>
        <mxCell id="ZR14jFrq00qd8k6B1fgf-61" value="[参加者]&lt;div&gt;回答結果表示ページ&lt;/div&gt;&lt;div&gt;(/playing&lt;/div&gt;&lt;div&gt;/ans_result)&lt;/div&gt;" style="rounded=0;whiteSpace=wrap;html=1;fontStyle=1;fontSize=16;strokeWidth=2;dashed=1;fillColor=#dae8fc;strokeColor=#6c8ebf;dashPattern=1 1;" vertex="1" parent="WIyWlLk6GJQsqaUBKTNV-1">
          <mxGeometry x="2940" y="660" width="200" height="120" as="geometry" />
        </mxCell>
        <mxCell id="ZR14jFrq00qd8k6B1fgf-63" value="" style="endArrow=classic;html=1;rounded=0;strokeWidth=3;dashed=1;fillColor=#dae8fc;strokeColor=#6c8ebf;dashPattern=1 1;entryX=0;entryY=0.5;entryDx=0;entryDy=0;exitX=1;exitY=0.5;exitDx=0;exitDy=0;" edge="1" parent="WIyWlLk6GJQsqaUBKTNV-1" source="ZR14jFrq00qd8k6B1fgf-52" target="ZR14jFrq00qd8k6B1fgf-60">
          <mxGeometry width="50" height="50" relative="1" as="geometry">
            <mxPoint x="2810" y="500" as="sourcePoint" />
            <mxPoint x="2940" y="500" as="targetPoint" />
          </mxGeometry>
        </mxCell>
        <mxCell id="ZR14jFrq00qd8k6B1fgf-65" value="" style="endArrow=classic;html=1;rounded=0;strokeWidth=3;dashed=1;fillColor=#dae8fc;strokeColor=#6c8ebf;dashPattern=1 1;entryX=0;entryY=0.5;entryDx=0;entryDy=0;exitX=1;exitY=0.5;exitDx=0;exitDy=0;" edge="1" parent="WIyWlLk6GJQsqaUBKTNV-1" source="ZR14jFrq00qd8k6B1fgf-58" target="ZR14jFrq00qd8k6B1fgf-61">
          <mxGeometry width="50" height="50" relative="1" as="geometry">
            <mxPoint x="2820" y="730" as="sourcePoint" />
            <mxPoint x="2940" y="720" as="targetPoint" />
          </mxGeometry>
        </mxCell>
        <mxCell id="ZR14jFrq00qd8k6B1fgf-69" value="" style="endArrow=classic;html=1;rounded=0;strokeWidth=3;dashed=1;fillColor=#dae8fc;strokeColor=#6c8ebf;dashPattern=1 1;entryX=0.5;entryY=1;entryDx=0;entryDy=0;exitX=0.5;exitY=0;exitDx=0;exitDy=0;" edge="1" parent="WIyWlLk6GJQsqaUBKTNV-1" source="ZR14jFrq00qd8k6B1fgf-60" target="ZR14jFrq00qd8k6B1fgf-70">
          <mxGeometry width="50" height="50" relative="1" as="geometry">
            <mxPoint x="2810" y="390" as="sourcePoint" />
            <mxPoint x="2950" y="390" as="targetPoint" />
          </mxGeometry>
        </mxCell>
        <mxCell id="ZR14jFrq00qd8k6B1fgf-70" value="[主催者]&lt;div&gt;ランキング表示ページ&lt;/div&gt;&lt;div&gt;(/playing&lt;/div&gt;&lt;div&gt;/ranking)&lt;/div&gt;" style="rounded=0;whiteSpace=wrap;html=1;fontStyle=1;fontSize=16;strokeWidth=2;dashed=1;fillColor=#dae8fc;strokeColor=#6c8ebf;dashPattern=1 1;" vertex="1" parent="WIyWlLk6GJQsqaUBKTNV-1">
          <mxGeometry x="2940" y="220" width="200" height="120" as="geometry" />
        </mxCell>
        <mxCell id="ZR14jFrq00qd8k6B1fgf-71" value="[参加者]&lt;div&gt;ランキング表示ページ&lt;/div&gt;&lt;div&gt;(/playing&lt;/div&gt;&lt;div&gt;/ranking)&lt;/div&gt;" style="rounded=0;whiteSpace=wrap;html=1;fontStyle=1;fontSize=16;strokeWidth=2;dashed=1;fillColor=#dae8fc;strokeColor=#6c8ebf;dashPattern=1 1;" vertex="1" parent="WIyWlLk6GJQsqaUBKTNV-1">
          <mxGeometry x="2940" y="880" width="200" height="120" as="geometry" />
        </mxCell>
        <mxCell id="ZR14jFrq00qd8k6B1fgf-72" value="" style="endArrow=classic;html=1;rounded=0;strokeWidth=3;dashed=1;fillColor=#dae8fc;strokeColor=#6c8ebf;dashPattern=1 1;entryX=0.5;entryY=0;entryDx=0;entryDy=0;exitX=1;exitY=0.5;exitDx=0;exitDy=0;exitPerimeter=0;" edge="1" parent="WIyWlLk6GJQsqaUBKTNV-1" source="ZR14jFrq00qd8k6B1fgf-78" target="ZR14jFrq00qd8k6B1fgf-71">
          <mxGeometry width="50" height="50" relative="1" as="geometry">
            <mxPoint x="2909.5799999999995" y="800" as="sourcePoint" />
            <mxPoint x="2909.5799999999995" y="900" as="targetPoint" />
          </mxGeometry>
        </mxCell>
        <mxCell id="ZR14jFrq00qd8k6B1fgf-73" value="&lt;span style=&quot;font-size: 16px;&quot;&gt;&lt;b&gt;「続行」&lt;/b&gt;&lt;/span&gt;&lt;div&gt;&lt;span style=&quot;font-size: 16px;&quot;&gt;&lt;b&gt;(問題が残っている&lt;/b&gt;&lt;/span&gt;&lt;/div&gt;&lt;div&gt;&lt;span style=&quot;font-size: 16px;&quot;&gt;&lt;b&gt;場合&lt;/b&gt;&lt;/span&gt;&lt;b style=&quot;font-size: 16px; background-color: initial;&quot;&gt;)&lt;/b&gt;&lt;/div&gt;" style="text;whiteSpace=wrap;html=1;align=center;verticalAlign=top;" vertex="1" parent="WIyWlLk6GJQsqaUBKTNV-1">
          <mxGeometry x="3050" y="350" width="140" height="30" as="geometry" />
        </mxCell>
        <mxCell id="ZR14jFrq00qd8k6B1fgf-74" value="" style="endArrow=classic;html=1;rounded=0;strokeWidth=3;dashed=1;fillColor=#dae8fc;strokeColor=#6c8ebf;dashPattern=1 1;exitX=1;exitY=0.5;exitDx=0;exitDy=0;jumpStyle=none;flowAnimation=0;" edge="1" parent="WIyWlLk6GJQsqaUBKTNV-1" source="ZR14jFrq00qd8k6B1fgf-60">
          <mxGeometry width="50" height="50" relative="1" as="geometry">
            <mxPoint x="3050" y="450" as="sourcePoint" />
            <mxPoint x="3420" y="500" as="targetPoint" />
          </mxGeometry>
        </mxCell>
        <mxCell id="ZR14jFrq00qd8k6B1fgf-75" value="&lt;span style=&quot;font-size: 16px;&quot;&gt;&lt;b&gt;「最終結果表示」&lt;/b&gt;&lt;/span&gt;&lt;div&gt;&lt;span style=&quot;font-size: 16px;&quot;&gt;&lt;b&gt;(全問出題済みの&lt;/b&gt;&lt;/span&gt;&lt;/div&gt;&lt;div&gt;&lt;span style=&quot;font-size: 16px;&quot;&gt;&lt;b&gt;場合)&lt;/b&gt;&lt;/span&gt;&lt;/div&gt;" style="text;whiteSpace=wrap;html=1;align=center;verticalAlign=bottom;" vertex="1" parent="WIyWlLk6GJQsqaUBKTNV-1">
          <mxGeometry x="3280" y="460" width="140" height="30" as="geometry" />
        </mxCell>
        <mxCell id="ZR14jFrq00qd8k6B1fgf-76" value="" style="shape=or;whiteSpace=wrap;html=1;fillColor=#dae8fc;strokeColor=#6c8ebf;strokeWidth=2;dashed=1;dashPattern=1 1;" vertex="1" parent="WIyWlLk6GJQsqaUBKTNV-1">
          <mxGeometry x="3180" y="680" width="60" height="80" as="geometry" />
        </mxCell>
        <mxCell id="ZR14jFrq00qd8k6B1fgf-77" value="&lt;span style=&quot;font-size: 16px;&quot;&gt;&lt;b&gt;自動的遷移&lt;/b&gt;&lt;/span&gt;" style="text;whiteSpace=wrap;html=1;align=center;" vertex="1" parent="WIyWlLk6GJQsqaUBKTNV-1">
          <mxGeometry x="3140" y="650" width="140" height="30" as="geometry" />
        </mxCell>
        <mxCell id="ZR14jFrq00qd8k6B1fgf-78" value="" style="shape=or;whiteSpace=wrap;html=1;fillColor=#dae8fc;strokeColor=#6c8ebf;strokeWidth=2;dashed=1;dashPattern=1 1;direction=south;" vertex="1" parent="WIyWlLk6GJQsqaUBKTNV-1">
          <mxGeometry x="3000" y="800" width="80" height="60" as="geometry" />
        </mxCell>
        <mxCell id="ZR14jFrq00qd8k6B1fgf-79" value="&lt;span style=&quot;font-size: 16px;&quot;&gt;&lt;b&gt;自動的遷移&lt;/b&gt;&lt;/span&gt;" style="text;whiteSpace=wrap;html=1;align=center;" vertex="1" parent="WIyWlLk6GJQsqaUBKTNV-1">
          <mxGeometry x="3050" y="815" width="140" height="30" as="geometry" />
        </mxCell>
        <mxCell id="ZR14jFrq00qd8k6B1fgf-80" value="" style="endArrow=classic;html=1;rounded=0;strokeWidth=3;dashed=1;fillColor=#dae8fc;strokeColor=#6c8ebf;dashPattern=1 1;entryX=0;entryY=0.5;entryDx=0;entryDy=0;exitX=0.5;exitY=1;exitDx=0;exitDy=0;entryPerimeter=0;" edge="1" parent="WIyWlLk6GJQsqaUBKTNV-1" source="ZR14jFrq00qd8k6B1fgf-61" target="ZR14jFrq00qd8k6B1fgf-78">
          <mxGeometry width="50" height="50" relative="1" as="geometry">
            <mxPoint x="3050" y="870" as="sourcePoint" />
            <mxPoint x="3050" y="890" as="targetPoint" />
          </mxGeometry>
        </mxCell>
        <mxCell id="ZR14jFrq00qd8k6B1fgf-81" value="" style="endArrow=classic;html=1;rounded=0;strokeWidth=3;dashed=1;fillColor=#dae8fc;strokeColor=#6c8ebf;dashPattern=1 1;entryX=0;entryY=0.5;entryDx=0;entryDy=0;entryPerimeter=0;exitX=1;exitY=0.5;exitDx=0;exitDy=0;" edge="1" parent="WIyWlLk6GJQsqaUBKTNV-1" source="ZR14jFrq00qd8k6B1fgf-61" target="ZR14jFrq00qd8k6B1fgf-76">
          <mxGeometry width="50" height="50" relative="1" as="geometry">
            <mxPoint x="3160" y="690" as="sourcePoint" />
            <mxPoint x="2950" y="730" as="targetPoint" />
          </mxGeometry>
        </mxCell>
        <mxCell id="ZR14jFrq00qd8k6B1fgf-82" value="" style="endArrow=none;html=1;rounded=0;strokeWidth=3;dashed=1;fillColor=#dae8fc;strokeColor=#6c8ebf;dashPattern=1 1;endFill=0;exitX=1;exitY=0.5;exitDx=0;exitDy=0;entryX=0;entryY=0.25;entryDx=0;entryDy=0;entryPerimeter=0;" edge="1" parent="WIyWlLk6GJQsqaUBKTNV-1" source="ZR14jFrq00qd8k6B1fgf-60" target="ZR14jFrq00qd8k6B1fgf-76">
          <mxGeometry width="50" height="50" relative="1" as="geometry">
            <mxPoint x="3140" y="530" as="sourcePoint" />
            <mxPoint x="3160" y="700" as="targetPoint" />
            <Array as="points">
              <mxPoint x="3160" y="500" />
              <mxPoint x="3160" y="700" />
            </Array>
          </mxGeometry>
        </mxCell>
        <mxCell id="ZR14jFrq00qd8k6B1fgf-85" value="" style="endArrow=classic;html=1;rounded=0;strokeWidth=3;dashed=1;fillColor=#dae8fc;strokeColor=#6c8ebf;dashPattern=1 1;exitX=1;exitY=0.5;exitDx=0;exitDy=0;exitPerimeter=0;" edge="1" parent="WIyWlLk6GJQsqaUBKTNV-1" source="ZR14jFrq00qd8k6B1fgf-76">
          <mxGeometry width="50" height="50" relative="1" as="geometry">
            <mxPoint x="3150" y="730" as="sourcePoint" />
            <mxPoint x="3420" y="720" as="targetPoint" />
          </mxGeometry>
        </mxCell>
        <mxCell id="ZR14jFrq00qd8k6B1fgf-86" value="[主催者]&lt;div&gt;最終結果表示ページ&lt;/div&gt;&lt;div&gt;(/playing&lt;/div&gt;&lt;div&gt;&lt;span style=&quot;background-color: initial;&quot;&gt;/overall)&lt;/span&gt;&lt;/div&gt;" style="rounded=0;whiteSpace=wrap;html=1;fontStyle=1;fontSize=16;strokeWidth=2;dashed=1;fillColor=#dae8fc;strokeColor=#6c8ebf;dashPattern=1 1;" vertex="1" parent="WIyWlLk6GJQsqaUBKTNV-1">
          <mxGeometry x="3420" y="440" width="200" height="120" as="geometry" />
        </mxCell>
        <mxCell id="ZR14jFrq00qd8k6B1fgf-87" value="&lt;span style=&quot;font-size: 16px;&quot;&gt;&lt;b&gt;「続行」&lt;/b&gt;&lt;/span&gt;&lt;div&gt;&lt;span style=&quot;font-size: 16px;&quot;&gt;&lt;b&gt;([主催者]トリガー)&lt;/b&gt;&lt;/span&gt;&lt;/div&gt;" style="text;whiteSpace=wrap;html=1;align=center;verticalAlign=top;" vertex="1" parent="WIyWlLk6GJQsqaUBKTNV-1">
          <mxGeometry x="3170" y="800" width="140" height="30" as="geometry" />
        </mxCell>
        <mxCell id="ZR14jFrq00qd8k6B1fgf-89" value="&lt;span style=&quot;font-size: 16px;&quot;&gt;&lt;b&gt;「最終結果表示」&lt;/b&gt;&lt;/span&gt;&lt;div&gt;&lt;span style=&quot;font-size: 16px;&quot;&gt;&lt;b&gt;([主催者]トリガー)&lt;/b&gt;&lt;/span&gt;&lt;/div&gt;" style="text;whiteSpace=wrap;html=1;align=center;verticalAlign=top;" vertex="1" parent="WIyWlLk6GJQsqaUBKTNV-1">
          <mxGeometry x="3020" y="590" width="140" height="30" as="geometry" />
        </mxCell>
        <mxCell id="ZR14jFrq00qd8k6B1fgf-90" value="[参加者]&lt;div&gt;最終結果表示ページ&lt;/div&gt;&lt;div&gt;(/playing&lt;/div&gt;&lt;div&gt;&lt;span style=&quot;background-color: initial;&quot;&gt;/overall)&lt;/span&gt;&lt;/div&gt;" style="rounded=0;whiteSpace=wrap;html=1;fontStyle=1;fontSize=16;strokeWidth=2;dashed=1;fillColor=#dae8fc;strokeColor=#6c8ebf;dashPattern=1 1;" vertex="1" parent="WIyWlLk6GJQsqaUBKTNV-1">
          <mxGeometry x="3420" y="660" width="200" height="120" as="geometry" />
        </mxCell>
        <mxCell id="ZR14jFrq00qd8k6B1fgf-91" value="" style="endArrow=classic;html=1;rounded=0;strokeWidth=3;dashed=1;fillColor=#dae8fc;strokeColor=#6c8ebf;dashPattern=1 1;entryX=0.5;entryY=0;entryDx=0;entryDy=0;exitX=0;exitY=0.5;exitDx=0;exitDy=0;" edge="1" parent="WIyWlLk6GJQsqaUBKTNV-1" source="ZR14jFrq00qd8k6B1fgf-70" target="pH4CJCZ5LqVkKEiUWvyl-15">
          <mxGeometry width="50" height="50" relative="1" as="geometry">
            <mxPoint x="2830" y="400" as="sourcePoint" />
            <mxPoint x="2830" y="300" as="targetPoint" />
            <Array as="points">
              <mxPoint x="2360" y="280" />
            </Array>
          </mxGeometry>
        </mxCell>
        <mxCell id="ZR14jFrq00qd8k6B1fgf-92" value="&lt;span style=&quot;color: rgb(0, 0, 0); font-family: Helvetica; font-size: 16px; font-style: normal; font-variant-ligatures: normal; font-variant-caps: normal; font-weight: 700; letter-spacing: normal; orphans: 2; text-indent: 0px; text-transform: none; widows: 2; word-spacing: 0px; -webkit-text-stroke-width: 0px; white-space: normal; background-color: rgb(251, 251, 251); text-decoration-thickness: initial; text-decoration-style: initial; text-decoration-color: initial; float: none; display: inline !important;&quot;&gt;「続行&lt;/span&gt;&lt;span style=&quot;font-size: 16px; font-weight: 700;&quot;&gt;」&lt;/span&gt;" style="text;whiteSpace=wrap;html=1;align=center;" vertex="1" parent="WIyWlLk6GJQsqaUBKTNV-1">
          <mxGeometry x="2800" y="240" width="140" height="30" as="geometry" />
        </mxCell>
        <mxCell id="ZR14jFrq00qd8k6B1fgf-93" value="" style="shape=or;whiteSpace=wrap;html=1;fillColor=#dae8fc;strokeColor=#6c8ebf;strokeWidth=2;dashed=1;dashPattern=1 1;direction=west;" vertex="1" parent="WIyWlLk6GJQsqaUBKTNV-1">
          <mxGeometry x="2840" y="900" width="60" height="80" as="geometry" />
        </mxCell>
        <mxCell id="ZR14jFrq00qd8k6B1fgf-94" value="" style="endArrow=classic;html=1;rounded=0;strokeWidth=3;dashed=1;fillColor=#dae8fc;strokeColor=#6c8ebf;dashPattern=1 1;entryX=0;entryY=0.5;entryDx=0;entryDy=0;exitX=0;exitY=0.5;exitDx=0;exitDy=0;entryPerimeter=0;" edge="1" parent="WIyWlLk6GJQsqaUBKTNV-1" source="ZR14jFrq00qd8k6B1fgf-71" target="ZR14jFrq00qd8k6B1fgf-93">
          <mxGeometry width="50" height="50" relative="1" as="geometry">
            <mxPoint x="2810" y="730" as="sourcePoint" />
            <mxPoint x="2950" y="730" as="targetPoint" />
          </mxGeometry>
        </mxCell>
        <mxCell id="ZR14jFrq00qd8k6B1fgf-98" value="" style="endArrow=none;html=1;rounded=0;strokeWidth=3;dashed=1;fillColor=#dae8fc;strokeColor=#6c8ebf;dashPattern=1 1;endFill=0;entryX=0;entryY=0.75;entryDx=0;entryDy=0;entryPerimeter=0;exitX=0;exitY=0.5;exitDx=0;exitDy=0;" edge="1" parent="WIyWlLk6GJQsqaUBKTNV-1" source="ZR14jFrq00qd8k6B1fgf-70" target="ZR14jFrq00qd8k6B1fgf-93">
          <mxGeometry width="50" height="50" relative="1" as="geometry">
            <mxPoint x="2920" y="280" as="sourcePoint" />
            <mxPoint x="2890" y="310" as="targetPoint" />
            <Array as="points">
              <mxPoint x="2920" y="280" />
              <mxPoint x="2920" y="920" />
            </Array>
          </mxGeometry>
        </mxCell>
        <mxCell id="ZR14jFrq00qd8k6B1fgf-66" value="&lt;span style=&quot;font-size: 16px;&quot;&gt;&lt;b&gt;回答時間終了後&lt;/b&gt;&lt;/span&gt;" style="text;whiteSpace=wrap;html=1;align=center;" vertex="1" parent="WIyWlLk6GJQsqaUBKTNV-1">
          <mxGeometry x="2800" y="730" width="140" height="30" as="geometry" />
        </mxCell>
        <mxCell id="ZR14jFrq00qd8k6B1fgf-68" value="&lt;span style=&quot;font-size: 16px;&quot;&gt;&lt;b&gt;(時間経過に&lt;/b&gt;&lt;/span&gt;&lt;div&gt;&lt;span style=&quot;font-size: 16px;&quot;&gt;&lt;b&gt;よる連動)&lt;/b&gt;&lt;/span&gt;&lt;/div&gt;" style="text;whiteSpace=wrap;html=1;align=center;" vertex="1" parent="WIyWlLk6GJQsqaUBKTNV-1">
          <mxGeometry x="2740" y="590" width="140" height="30" as="geometry" />
        </mxCell>
        <mxCell id="ZR14jFrq00qd8k6B1fgf-64" value="&lt;span style=&quot;font-size: 16px;&quot;&gt;&lt;b&gt;回答時間終了後&lt;/b&gt;&lt;/span&gt;" style="text;whiteSpace=wrap;html=1;align=center;" vertex="1" parent="WIyWlLk6GJQsqaUBKTNV-1">
          <mxGeometry x="2800" y="460" width="140" height="30" as="geometry" />
        </mxCell>
        <mxCell id="ZR14jFrq00qd8k6B1fgf-99" value="" style="endArrow=classic;html=1;rounded=0;strokeWidth=3;dashed=1;fillColor=#dae8fc;strokeColor=#6c8ebf;dashPattern=1 1;exitX=1;exitY=0.5;exitDx=0;exitDy=0;exitPerimeter=0;entryX=0.5;entryY=1;entryDx=0;entryDy=0;" edge="1" parent="WIyWlLk6GJQsqaUBKTNV-1" source="ZR14jFrq00qd8k6B1fgf-93" target="ZR14jFrq00qd8k6B1fgf-43">
          <mxGeometry width="50" height="50" relative="1" as="geometry">
            <mxPoint x="2820" y="939.58" as="sourcePoint" />
            <mxPoint x="2290" y="940" as="targetPoint" />
            <Array as="points">
              <mxPoint x="2360" y="940" />
            </Array>
          </mxGeometry>
        </mxCell>
        <mxCell id="ZR14jFrq00qd8k6B1fgf-100" value="&lt;span style=&quot;font-size: 16px;&quot;&gt;&lt;b&gt;「続行」&lt;/b&gt;&lt;/span&gt;&lt;div&gt;&lt;span style=&quot;font-size: 16px;&quot;&gt;&lt;b&gt;([主催者]トリガー)&lt;/b&gt;&lt;/span&gt;&lt;/div&gt;" style="text;whiteSpace=wrap;html=1;align=center;verticalAlign=top;" vertex="1" parent="WIyWlLk6GJQsqaUBKTNV-1">
          <mxGeometry x="2780" y="845" width="140" height="30" as="geometry" />
        </mxCell>
        <mxCell id="ZR14jFrq00qd8k6B1fgf-101" value="&lt;span style=&quot;font-size: 16px;&quot;&gt;&lt;b&gt;自動的遷移&lt;/b&gt;&lt;/span&gt;" style="text;whiteSpace=wrap;html=1;align=center;" vertex="1" parent="WIyWlLk6GJQsqaUBKTNV-1">
          <mxGeometry x="2800" y="980" width="140" height="30" as="geometry" />
        </mxCell>
        <mxCell id="ZR14jFrq00qd8k6B1fgf-102" value="" style="endArrow=classic;html=1;rounded=0;strokeWidth=3;dashed=1;fillColor=#dae8fc;strokeColor=#6c8ebf;dashPattern=1 1;exitX=1;exitY=0.5;exitDx=0;exitDy=0;jumpStyle=none;flowAnimation=0;" edge="1" parent="WIyWlLk6GJQsqaUBKTNV-1" source="ZR14jFrq00qd8k6B1fgf-86">
          <mxGeometry width="50" height="50" relative="1" as="geometry">
            <mxPoint x="3150" y="510" as="sourcePoint" />
            <mxPoint x="3680" y="500" as="targetPoint" />
          </mxGeometry>
        </mxCell>
        <mxCell id="ZR14jFrq00qd8k6B1fgf-103" value="" style="endArrow=classic;html=1;rounded=0;strokeWidth=3;dashed=1;fillColor=#dae8fc;strokeColor=#6c8ebf;dashPattern=1 1;exitX=1;exitY=0.5;exitDx=0;exitDy=0;jumpStyle=none;flowAnimation=0;" edge="1" parent="WIyWlLk6GJQsqaUBKTNV-1" source="ZR14jFrq00qd8k6B1fgf-90">
          <mxGeometry width="50" height="50" relative="1" as="geometry">
            <mxPoint x="3630" y="510" as="sourcePoint" />
            <mxPoint x="3680" y="720" as="targetPoint" />
          </mxGeometry>
        </mxCell>
        <mxCell id="ZR14jFrq00qd8k6B1fgf-105" value="&lt;span style=&quot;font-size: 16px;&quot;&gt;&lt;b&gt;[メイン&lt;/b&gt;&lt;/span&gt;&lt;b style=&quot;font-size: 16px; background-color: initial;&quot;&gt;ページへ]&lt;/b&gt;&lt;div&gt;&lt;span style=&quot;font-size: 16px;&quot;&gt;&lt;b&gt;(/main)&lt;/b&gt;&lt;/span&gt;&lt;/div&gt;" style="text;whiteSpace=wrap;html=1;align=center;fontStyle=4;verticalAlign=middle;" vertex="1" parent="WIyWlLk6GJQsqaUBKTNV-1">
          <mxGeometry x="3705" y="485" width="140" height="30" as="geometry" />
        </mxCell>
        <mxCell id="ZR14jFrq00qd8k6B1fgf-106" value="&lt;span style=&quot;font-size: 16px;&quot;&gt;&lt;b&gt;[メイン&lt;/b&gt;&lt;/span&gt;&lt;b style=&quot;background-color: initial; font-size: 16px;&quot;&gt;ページへ]&lt;/b&gt;&lt;div&gt;&lt;span style=&quot;font-size: 16px;&quot;&gt;&lt;b&gt;(/main)&lt;/b&gt;&lt;/span&gt;&lt;/div&gt;" style="text;whiteSpace=wrap;html=1;align=center;fontStyle=4;verticalAlign=middle;" vertex="1" parent="WIyWlLk6GJQsqaUBKTNV-1">
          <mxGeometry x="3705" y="705" width="140" height="30" as="geometry" />
        </mxCell>
        <mxCell id="ZR14jFrq00qd8k6B1fgf-107" value="&lt;span style=&quot;font-size: 16px;&quot;&gt;&lt;b&gt;「終了」&lt;/b&gt;&lt;/span&gt;" style="text;whiteSpace=wrap;html=1;align=center;" vertex="1" parent="WIyWlLk6GJQsqaUBKTNV-1">
          <mxGeometry x="3582" y="460" width="140" height="30" as="geometry" />
        </mxCell>
        <mxCell id="ZR14jFrq00qd8k6B1fgf-108" value="&lt;span style=&quot;font-size: 16px;&quot;&gt;&lt;b&gt;「終了」&lt;/b&gt;&lt;/span&gt;" style="text;whiteSpace=wrap;html=1;align=center;" vertex="1" parent="WIyWlLk6GJQsqaUBKTNV-1">
          <mxGeometry x="3582" y="680" width="140" height="30" as="geometry" />
        </mxCell>
      </root>
    </mxGraphModel>
  </diagram>
</mxfile>
